<svg width="24" height="24" viewBox="0 0 24 24" fill="none" xmlns="http://www.w3.org/2000/svg">
<path d="M18.95 23.26H4.65C3.92 23.26 3.29 23 2.77 22.49C2.25 21.97 2 21.35 2 20.61V8.36C2 7.63 2.26 7 2.77 6.48C3.29 5.96 3.91 5.7 4.65 5.7H6.1C6.1 4.12 6.65 2.77 7.76 1.66C8.87 0.55 10.21 0 11.8 0C13.39 0 14.73 0.55 15.84 1.66C16.95 2.77 17.5 4.11 17.5 5.7H18.95C19.68 5.7 20.31 5.96 20.83 6.48C21.35 7 21.6 7.62 21.6 8.36V20.61C21.6 21.34 21.34 21.97 20.83 22.49C20.31 23.01 19.69 23.26 18.95 23.26ZM8.75 5.71H14.85C14.85 4.86 14.55 4.14 13.96 3.55C13.37 2.96 12.65 2.66 11.8 2.66C10.95 2.66 10.23 2.96 9.64 3.55C9.05 4.14 8.75 4.86 8.75 5.71V5.71ZM11.8 15.11C13.25 15.11 14.52 14.66 15.6 13.77C16.68 12.88 17.22 11.84 17.22 10.66C17.22 10.31 17.1 10.01 16.84 9.77C16.59 9.53 16.27 9.41 15.89 9.41C15.61 9.41 15.35 9.5 15.12 9.68C14.89 9.86 14.72 10.12 14.62 10.45C14.44 11.03 14.08 11.51 13.55 11.89C13.02 12.27 12.43 12.45 11.78 12.45C11.13 12.45 10.54 12.26 10.02 11.89C9.49 11.52 9.14 11.04 8.96 10.45C8.84 10.1 8.68 9.84 8.46 9.66C8.24 9.49 7.99 9.4 7.68 9.4C7.3 9.4 6.98 9.52 6.73 9.76C6.48 10 6.35 10.3 6.35 10.65C6.35 11.83 6.9 12.87 7.99 13.76C9.08 14.65 10.35 15.1 11.8 15.1V15.11Z" fill="black
"/>
</svg>
